<?xml version="1.0" encoding="UTF-8" standalone="no"?>
<!-- Created with Inkscape (http://www.inkscape.org/) -->

<svg
   xmlns:dc="http://purl.org/dc/elements/1.1/"
   xmlns:cc="http://creativecommons.org/ns#"
   xmlns:rdf="http://www.w3.org/1999/02/22-rdf-syntax-ns#"
   xmlns:svg="http://www.w3.org/2000/svg"
   xmlns="http://www.w3.org/2000/svg"
   xmlns:sodipodi="http://sodipodi.sourceforge.net/DTD/sodipodi-0.dtd"
   xmlns:inkscape="http://www.inkscape.org/namespaces/inkscape"
   id="svg2"
   version="1.1"
   inkscape:version="0.48.4 r9939"
   width="213.75009"
   height="350.00275"
   xml:space="preserve"
   sodipodi:docname="classes_Pyreverse (copy).svg"><metadata
     id="metadata8"><rdf:RDF><cc:Work
         rdf:about=""><dc:format>image/svg+xml</dc:format><dc:type
           rdf:resource="http://purl.org/dc/dcmitype/StillImage" /><dc:title /></cc:Work></rdf:RDF></metadata><defs
     id="defs6" /><sodipodi:namedview
     pagecolor="#ffffff"
     bordercolor="#666666"
     borderopacity="1"
     objecttolerance="10"
     gridtolerance="10"
     guidetolerance="10"
     inkscape:pageopacity="0"
     inkscape:pageshadow="2"
     inkscape:window-width="1239"
     inkscape:window-height="776"
     id="namedview4"
     showgrid="false"
     inkscape:zoom="0.4741168"
     inkscape:cx="-710.24198"
     inkscape:cy="6.6045699"
     inkscape:window-x="41"
     inkscape:window-y="24"
     inkscape:window-maximized="1"
     inkscape:current-layer="g10"
     fit-margin-top="0"
     fit-margin-left="0"
     fit-margin-right="0"
     fit-margin-bottom="0" /><g
     id="g10"
     inkscape:groupmode="layer"
     inkscape:label="classes_Pyreverse"
     transform="matrix(1.25,0,0,-1.25,-309.42965,670.35261)"><g
       id="g3701"
       transform="translate(-296.9562,216.28209)"><path
         d="m 545,319.5 170,0 0,-279 -170,0 0,279 z"
         style="fill:none;stroke:#000000;stroke-width:1;stroke-linecap:butt;stroke-linejoin:round;stroke-miterlimit:10;stroke-opacity:1;stroke-dasharray:none"
         id="path120"
         inkscape:connector-curvature="0" /><text
         y="-304.30078"
         x="617.5"
         transform="scale(1,-1)"
         id="text122"><tspan
           style="font-size:14.00024414px;font-variant:normal;writing-mode:lr-tb;fill:#000000;fill-opacity:1;fill-rule:nonzero;stroke:none;font-family:Nimbus Roman No9 L;-inkscape-font-specification:NimbusRomNo9L-Regu"
           x="617.5 625.00415 631.75226 635.50433"
           y="-304.30078"
           sodipodi:role="line"
           id="tspan124">Polo</tspan></text>
<path
         d="m 545,296.5 170,0"
         style="fill:none;stroke:#000000;stroke-width:1;stroke-linecap:butt;stroke-linejoin:round;stroke-miterlimit:10;stroke-opacity:1;stroke-dasharray:none"
         id="path126"
         inkscape:connector-curvature="0" /><text
         y="-281.30078"
         x="553"
         transform="scale(1,-1)"
         id="text128"><tspan
           style="font-size:14.00024414px;font-variant:normal;writing-mode:lr-tb;fill:#000000;fill-opacity:1;fill-rule:nonzero;stroke:none;font-family:Nimbus Roman No9 L;-inkscape-font-specification:NimbusRomNo9L-Regu"
           x="553 559.74811 564.25623 568.75024 574.75641 579.25049 585.25659 592.0047 598.75281 604.00287 610.00897 614.50305 621.25122 625.00323 631.00934 637.00146 642.25159 646.0036 649.75568 653.50775 657.25983 661.0119 666.26196"
           y="-281.30078"
           sodipodi:role="line"
           id="tspan130">offered_services : list</tspan><tspan
           style="font-size:14.00024414px;font-variant:normal;writing-mode:lr-tb;fill:#000000;fill-opacity:1;fill-rule:nonzero;stroke:none;font-family:Nimbus Roman No9 L;-inkscape-font-specification:NimbusRomNo9L-Regu"
           x="553 559.74811 564.99823 571.00433 575.49841 582.24652 587.49658 593.50269 597.99677 604.75891 608.49695 614.50305 620.50916 625.75928 629.51135 633.24939 637.00146 643.74957 647.50165 653.50775"
           y="-266.30078"
           sodipodi:role="line"
           id="tspan132">user_services : dict</tspan><tspan
           style="font-size:14.00024414px;font-variant:normal;writing-mode:lr-tb;fill:#000000;fill-opacity:1;fill-rule:nonzero;stroke:none;font-family:Nimbus Roman No9 L;-inkscape-font-specification:NimbusRomNo9L-Regu"
           x="553 559.0061 562.74414 566.49622 572.50232 583.75854 590.50665 594.25873 599.50879 603.24689 606.99896 610.75098 614.50305 621.25122"
           y="-251.30078"
           sodipodi:role="line"
           id="tspan134">attempts : int</tspan><tspan
           style="font-size:14.00024414px;font-variant:normal;writing-mode:lr-tb;fill:#000000;fill-opacity:1;fill-rule:nonzero;stroke:none;font-family:Nimbus Roman No9 L;-inkscape-font-specification:NimbusRomNo9L-Regu"
           x="553 559.74811 565.75421 570.24829 574.00037 578.50842"
           y="-236.30078"
           sodipodi:role="line"
           id="tspan136">verify</tspan><tspan
           style="font-size:14.00024414px;font-variant:normal;writing-mode:lr-tb;fill:#000000;fill-opacity:1;fill-rule:nonzero;stroke:none;font-family:Nimbus Roman No9 L;-inkscape-font-specification:NimbusRomNo9L-Regu"
           x="553 564.25623 571.00433 574.75641 578.50842 582.24652 588.25262 594.25873 599.50879 603.24689 610.00897 616.75708 621.25122 627.99933 634.76141 641.50952 645.2616 648.99969 652.75171 658.00183 661.75391"
           y="-221.30077"
           sodipodi:role="line"
           id="tspan138">multicast_group : str</tspan></text>
<path
         d="m 545,213.5 170,0"
         style="fill:none;stroke:#000000;stroke-width:1;stroke-linecap:butt;stroke-linejoin:round;stroke-miterlimit:10;stroke-opacity:1;stroke-dasharray:none"
         id="path140"
         inkscape:connector-curvature="0" /><text
         y="-198.30078"
         x="553"
         transform="scale(1,-1)"
         id="text142"><tspan
           style="font-size:14.00024414px;font-variant:normal;writing-mode:lr-tb;fill:#000000;fill-opacity:1;fill-rule:nonzero;stroke:none;font-family:Nimbus Roman No9 L;-inkscape-font-specification:NimbusRomNo9L-Regu"
           x="553 557.49408 563.50018 568.75024 575.49841 582.24652 589.00861 594.25873 600.25085 606.99896 612.24902 618.25513 622.74921 629.51135 633.24939 639.25549 645.2616 650.51172 655.0058"
           y="-198.30078"
           sodipodi:role="line"
           id="tspan144">response_services()</tspan><tspan
           style="font-size:14.00024414px;font-variant:normal;writing-mode:lr-tb;fill:#000000;fill-opacity:1;fill-rule:nonzero;stroke:none;font-family:Nimbus Roman No9 L;-inkscape-font-specification:NimbusRomNo9L-Regu"
           x="553 557.49408 563.50018 567.25226 574.00037 580.00647 586.75458 593.50269 600.25085 605.50092 611.50702 616.0011 622.74921 627.99933 634.00543 638.49951 645.2616 648.99969 655.0058 661.0119 666.26196 673.01007 676.76215 680.51422 686.50635 691.0144 695.50848"
           y="-183.30078"
           sodipodi:role="line"
           id="tspan146">reload_user_services_iter()</tspan><tspan
           style="font-size:14.00024414px;font-variant:normal;writing-mode:lr-tb;fill:#000000;fill-opacity:1;fill-rule:nonzero;stroke:none;font-family:Nimbus Roman No9 L;-inkscape-font-specification:NimbusRomNo9L-Regu"
           x="553 557.49408 563.50018 567.25226 571.74634 578.50842 583.0025"
           y="-168.30078"
           sodipodi:role="line"
           id="tspan148">retry()</tspan><tspan
           style="font-size:14.00024414px;font-variant:normal;writing-mode:lr-tb;fill:#000000;fill-opacity:1;fill-rule:nonzero;stroke:none;font-family:Nimbus Roman No9 L;-inkscape-font-specification:NimbusRomNo9L-Regu"
           x="553 558.25012 562.00214 567.99426 572.50232 576.25439 583.75854 588.25262 595.00073 598.75281 605.50092 611.50702 618.25513 622.0072 626.50128"
           y="-153.30078"
           sodipodi:role="line"
           id="tspan150">startProtocol()</tspan><tspan
           style="font-size:14.00024414px;font-variant:normal;writing-mode:lr-tb;fill:#000000;fill-opacity:1;fill-rule:nonzero;stroke:none;font-family:Nimbus Roman No9 L;-inkscape-font-specification:NimbusRomNo9L-Regu"
           x="553 557.49408 563.50018 567.25226 574.00037 580.00647 586.75458 593.50269 600.25085 605.50092 611.50702 616.0011 622.74921 627.99933 634.00543 638.49951 645.2616 648.99969 655.0058 661.0119 666.26196 670.75604"
           y="-138.30077"
           sodipodi:role="line"
           id="tspan152">reload_user_services()</tspan><tspan
           style="font-size:14.00024414px;font-variant:normal;writing-mode:lr-tb;fill:#000000;fill-opacity:1;fill-rule:nonzero;stroke:none;font-family:Nimbus Roman No9 L;-inkscape-font-specification:NimbusRomNo9L-Regu"
           x="553 557.49408 563.50018 567.25226 574.00037 580.00647 586.75458 593.50269 598.75281 604.75891 609.25299 616.0011 619.75317 625.75928 631.75134 637.00146 641.50952"
           y="-123.30077"
           sodipodi:role="line"
           id="tspan154">reload_services()</tspan><tspan
           style="font-size:14.00024414px;font-variant:normal;writing-mode:lr-tb;fill:#000000;fill-opacity:1;fill-rule:nonzero;stroke:none;font-family:Nimbus Roman No9 L;-inkscape-font-specification:NimbusRomNo9L-Regu"
           x="553 559.74811 565.75421 569.50629 575.49841 582.24652 586.75458 592.7467 604.00287 613.00507 619.01117 625.00323 631.00934 634.76141 641.50952 647.50165 654.26379 658.75781"
           y="-108.30077"
           sodipodi:role="line"
           id="tspan156">datagramReceived()</tspan><tspan
           style="font-size:14.00024414px;font-variant:normal;writing-mode:lr-tb;fill:#000000;fill-opacity:1;fill-rule:nonzero;stroke:none;font-family:Nimbus Roman No9 L;-inkscape-font-specification:NimbusRomNo9L-Regu"
           x="553 559.74811 565.75421 572.50232 579.25049 583.0025 589.00861 593.50269 597.99677"
           y="-93.300774"
           sodipodi:role="line"
           id="tspan158">handler()</tspan><tspan
           style="font-size:14.00024414px;font-variant:normal;writing-mode:lr-tb;fill:#000000;fill-opacity:1;fill-rule:nonzero;stroke:none;font-family:Nimbus Roman No9 L;-inkscape-font-specification:NimbusRomNo9L-Regu"
           x="553 557.49408 563.50018 568.75024 575.49841 582.24652 589.00861 594.25873 600.25085 606.99896 611.50702 617.49915 624.26123 631.00934 637.00146 642.25159 646.0036 652.75171 657.25983 664.00793 668.50201 675.26416 682.01227 687.26233 693.25446 697.76251 702.25659"
           y="-78.300774"
           sodipodi:role="line"
           id="tspan160">response_request_for_user()</tspan><tspan
           style="font-size:14.00024414px;font-variant:normal;writing-mode:lr-tb;fill:#000000;fill-opacity:1;fill-rule:nonzero;stroke:none;font-family:Nimbus Roman No9 L;-inkscape-font-specification:NimbusRomNo9L-Regu"
           x="553 557.49408 563.50018 568.75024 575.49841 582.24652 589.00861 594.25873 600.25085 606.99896 611.50702 617.49915 624.26123 631.00934 637.00146 642.25159 646.0036 652.75171 657.25983 664.00793 668.50201 673.01007"
           y="-63.300766"
           sodipodi:role="line"
           id="tspan162">response_request_for()</tspan><tspan
           style="font-size:14.00024414px;font-variant:normal;writing-mode:lr-tb;fill:#000000;fill-opacity:1;fill-rule:nonzero;stroke:none;font-family:Nimbus Roman No9 L;-inkscape-font-specification:NimbusRomNo9L-Regu"
           x="553 559.74811 566.49622 570.24829 576.9964 581.50452"
           y="-48.300766"
           sodipodi:role="line"
           id="tspan164">polo()</tspan></text>
</g></g></svg>