<?xml version="1.0" encoding="utf-8" ?>
<!DOCTYPE svg PUBLIC "-//W3C//DTD SVG 1.1//EN" "http://www.w3.org/Graphics/SVG/1.1/DTD/svg11.dtd">
<svg height="516" version="1.1" width="966" xmlns="http://www.w3.org/2000/svg">
<ellipse cx="408" cy="22" fill="#000000" rx="8.0" ry="8.0" stroke="#000000" stroke-width="1"/>
<rect fill="#00ff" height="33" rx="35" ry="35" stroke="#00ff" stroke-width="1" width="388" x="233" y="63"/>
<rect fill="#ffffff" height="35" rx="35" ry="35" stroke="#000000" stroke-width="1" width="390" x="232" y="62"/>
<rect fill="#ffffff" height="33" rx="35" ry="35" stroke="#ffffff" stroke-width="1" width="388" x="233" y="63"/>
<text font-family="Dialog" font-size="12" x="244" y="81">
Configurar timeout, máximo número de nodos y reintentos</text>
<rect fill="#00ff" height="33" rx="35" ry="35" stroke="#00ff" stroke-width="1" width="194" x="313" y="135"/>
<rect fill="#ffffff" height="35" rx="35" ry="35" stroke="#000000" stroke-width="1" width="196" x="312" y="134"/>
<rect fill="#ffffff" height="33" rx="35" ry="35" stroke="#ffffff" stroke-width="1" width="194" x="313" y="135"/>
<text font-family="Dialog" font-size="12" x="324" y="153">
Enviar mensaje Request-for</text>
<polyline fill="none" points="408,30 408,63" stroke="#000000" stroke-width="1"/>
<line fill="#000000" stroke="#000000" stroke-width="1" x1="401" x2="408" y1="51" y2="63"/>
<line fill="#000000" stroke="#000000" stroke-width="1" x1="415" x2="408" y1="51" y2="63"/>
<polyline fill="none" points="408,95 408,135" stroke="#333399" stroke-width="1"/>
<line fill="#333399" stroke="#333399" stroke-width="1" x1="401" x2="408" y1="123" y2="135"/>
<line fill="#333399" stroke="#333399" stroke-width="1" x1="415" x2="408" y1="123" y2="135"/>
<rect fill="#00ff" height="33" rx="35" ry="35" stroke="#00ff" stroke-width="1" width="142" x="345" y="207"/>
<rect fill="#ffffff" height="35" rx="35" ry="35" stroke="#000000" stroke-width="1" width="144" x="344" y="206"/>
<rect fill="#ffffff" height="33" rx="35" ry="35" stroke="#ffffff" stroke-width="1" width="142" x="345" y="207"/>
<text font-family="Dialog" font-size="12" x="356" y="225">
Espera bloqueante</text>
<rect fill="#00ff" height="33" rx="35" ry="35" stroke="#00ff" stroke-width="1" width="164" x="553" y="271"/>
<rect fill="#ffffff" height="35" rx="35" ry="35" stroke="#000000" stroke-width="1" width="166" x="552" y="270"/>
<rect fill="#ffffff" height="33" rx="35" ry="35" stroke="#ffffff" stroke-width="1" width="164" x="553" y="271"/>
<text font-family="Dialog" font-size="12" x="564" y="289">
Recepción de mensaje</text>
<rect fill="#00ff" height="64" stroke="#00ff" stroke-width="1" width="138" x="752" y="262"/>
<rect fill="#ffffff" height="64" stroke="#ffffff" stroke-width="1" width="138" x="752" y="262"/>
<rect fill="none" height="64" stroke="#000000" stroke-width="1" width="138" x="752" y="262"/>
<line fill="#000000" stroke="#000000" stroke-width="1" x1="804" x2="837" y1="284" y2="284"/>
<text font-family="Dialog" font-size="12" x="804" y="283">
Nodo</text>
<rect fill="#00ff" height="33" rx="35" ry="35" stroke="#00ff" stroke-width="1" width="116" x="361" y="415"/>
<rect fill="#ffffff" height="35" rx="35" ry="35" stroke="#000000" stroke-width="1" width="118" x="360" y="414"/>
<rect fill="#ffffff" height="33" rx="35" ry="35" stroke="#ffffff" stroke-width="1" width="116" x="361" y="415"/>
<text font-family="Dialog" font-size="12" x="394" y="433">
Retorno</text>
<polyline fill="none" points="408,167 408,207" stroke="#000000" stroke-width="1"/>
<line fill="#000000" stroke="#000000" stroke-width="1" x1="401" x2="408" y1="195" y2="207"/>
<line fill="#000000" stroke="#000000" stroke-width="1" x1="415" x2="408" y1="195" y2="207"/>
<polygon fill="#ffffff" points="416,270 432,286 416,302 400,286" stroke="#ffffff" stroke-width="1"/>
<polygon fill="none" points="416,270 432,286 416,302 400,286" stroke="#000000" stroke-width="1"/>
<polyline fill="none" points="416,239 416,270" stroke="#000000" stroke-width="1"/>
<line fill="#000000" stroke="#000000" stroke-width="1" x1="409" x2="416" y1="258" y2="270"/>
<line fill="#000000" stroke="#000000" stroke-width="1" x1="423" x2="416" y1="258" y2="270"/>
<polyline fill="none" points="432,286 553,286" stroke="#333399" stroke-width="1"/>
<line fill="#333399" stroke="#333399" stroke-width="1" x1="541" x2="553" y1="293" y2="286"/>
<line fill="#333399" stroke="#333399" stroke-width="1" x1="541" x2="553" y1="279" y2="286"/>
<text font-family="Dialog" font-size="12" x="459" y="281">
 [mensaje]</text>
<polyline fill="none" points="416,302 416,334" stroke="#333399" stroke-width="1"/>
<line fill="#333399" stroke="#333399" stroke-width="1" x1="409" x2="416" y1="322" y2="334"/>
<line fill="#333399" stroke="#333399" stroke-width="1" x1="423" x2="416" y1="322" y2="334"/>
<text font-family="Dialog" font-size="12" x="419" y="321">
 [timeout]</text>
<line fill="#333399" stroke="#333399" stroke-width="1" x1="716" x2="721" y1="287" y2="287"/>
<line fill="#333399" stroke="#333399" stroke-width="1" x1="726" x2="731" y1="287" y2="287"/>
<line fill="#333399" stroke="#333399" stroke-width="1" x1="736" x2="741" y1="287" y2="287"/>
<line fill="#333399" stroke="#333399" stroke-width="1" x1="746" x2="751" y1="287" y2="287"/>
<line fill="#333399" stroke="#333399" stroke-width="1" x1="740" x2="752" y1="294" y2="287"/>
<line fill="#333399" stroke="#333399" stroke-width="1" x1="740" x2="752" y1="280" y2="287"/>
<polygon fill="#ffffff" points="936,278 952,294 936,310 920,294" stroke="#ffffff" stroke-width="1"/>
<polygon fill="none" points="936,278 952,294 936,310 920,294" stroke="#000000" stroke-width="1"/>
<line fill="#333399" stroke="#333399" stroke-width="1" x1="889" x2="894" y1="294" y2="294"/>
<line fill="#333399" stroke="#333399" stroke-width="1" x1="899" x2="904" y1="294" y2="294"/>
<line fill="#333399" stroke="#333399" stroke-width="1" x1="909" x2="914" y1="294" y2="294"/>
<line fill="#333399" stroke="#333399" stroke-width="1" x1="919" x2="920" y1="294" y2="294"/>
<line fill="#333399" stroke="#333399" stroke-width="1" x1="908" x2="920" y1="301" y2="294"/>
<line fill="#333399" stroke="#333399" stroke-width="1" x1="908" x2="920" y1="287" y2="294"/>
<polyline fill="none" points="936,278 936,222 486,222" stroke="#333399" stroke-width="1"/>
<line fill="#333399" stroke="#333399" stroke-width="1" x1="498" x2="486" y1="215" y2="222"/>
<line fill="#333399" stroke="#333399" stroke-width="1" x1="498" x2="486" y1="229" y2="222"/>
<text font-family="Dialog" font-size="12" x="633" y="217">
 [número de nodos &lt; max_nodes]</text>
<polyline fill="none" points="936,310 936,430 476,430" stroke="#333399" stroke-width="1"/>
<line fill="#333399" stroke="#333399" stroke-width="1" x1="488" x2="476" y1="423" y2="430"/>
<line fill="#333399" stroke="#333399" stroke-width="1" x1="488" x2="476" y1="437" y2="430"/>
<text font-family="Dialog" font-size="12" x="655" y="425">
 [número de nodos == max_nodes]</text>
<polyline fill="none" points="400,350 280,350 280,150 313,150" stroke="#333399" stroke-width="1"/>
<line fill="#333399" stroke="#333399" stroke-width="1" x1="301" x2="313" y1="157" y2="150"/>
<line fill="#333399" stroke="#333399" stroke-width="1" x1="301" x2="313" y1="143" y2="150"/>
<text font-family="Dialog" font-size="12" x="15" y="378">
 [intentos realizados &lt; intentos &amp;&amp; número de nodos == 0]</text>
<polygon fill="#ffffff" points="416,334 432,350 416,366 400,350" stroke="#ffffff" stroke-width="1"/>
<polygon fill="none" points="416,334 432,350 416,366 400,350" stroke="#000000" stroke-width="1"/>
<polyline fill="none" points="416,366 416,415" stroke="#333399" stroke-width="1"/>
<line fill="#333399" stroke="#333399" stroke-width="1" x1="409" x2="416" y1="403" y2="415"/>
<line fill="#333399" stroke="#333399" stroke-width="1" x1="423" x2="416" y1="403" y2="415"/>
<text font-family="Dialog" font-size="12" x="418" y="386">
 [intentos realizados == intentos]</text>
<ellipse cx="420" cy="490" fill="#000000" rx="12.0" ry="12.0" stroke="#000000" stroke-width="1"/>
<ellipse cx="420" cy="490" fill="#ffffff" rx="11.0" ry="11.0" stroke="#ffffff" stroke-width="1"/>
<ellipse cx="419" cy="489" fill="#000000" rx="7.5" ry="7.5" stroke="#000000" stroke-width="1"/>
<polyline fill="none" points="419,447 419,478" stroke="#333399" stroke-width="1"/>
<line fill="#333399" stroke="#333399" stroke-width="1" x1="412" x2="419" y1="466" y2="478"/>
<line fill="#333399" stroke="#333399" stroke-width="1" x1="426" x2="419" y1="466" y2="478"/>
</svg>
