<?xml version="1.0" encoding="UTF-8" standalone="no"?>
<!-- Created with Inkscape (http://www.inkscape.org/) -->

<svg
   xmlns:dc="http://purl.org/dc/elements/1.1/"
   xmlns:cc="http://creativecommons.org/ns#"
   xmlns:rdf="http://www.w3.org/1999/02/22-rdf-syntax-ns#"
   xmlns:svg="http://www.w3.org/2000/svg"
   xmlns="http://www.w3.org/2000/svg"
   xmlns:sodipodi="http://sodipodi.sourceforge.net/DTD/sodipodi-0.dtd"
   xmlns:inkscape="http://www.inkscape.org/namespaces/inkscape"
   id="svg2"
   version="1.1"
   inkscape:version="0.48.4 r9939"
   width="173.75009"
   height="256.25275"
   xml:space="preserve"
   sodipodi:docname="classes_Pyreverse (copy).svg"><metadata
     id="metadata8"><rdf:RDF><cc:Work
         rdf:about=""><dc:format>image/svg+xml</dc:format><dc:type
           rdf:resource="http://purl.org/dc/dcmitype/StillImage" /><dc:title /></cc:Work></rdf:RDF></metadata><defs
     id="defs6" /><sodipodi:namedview
     pagecolor="#ffffff"
     bordercolor="#666666"
     borderopacity="1"
     objecttolerance="10"
     gridtolerance="10"
     guidetolerance="10"
     inkscape:pageopacity="0"
     inkscape:pageshadow="2"
     inkscape:window-width="1239"
     inkscape:window-height="776"
     id="namedview4"
     showgrid="false"
     inkscape:zoom="0.4741168"
     inkscape:cx="-144.02128"
     inkscape:cy="-21.210611"
     inkscape:window-x="41"
     inkscape:window-y="24"
     inkscape:window-maximized="1"
     inkscape:current-layer="g10"
     fit-margin-top="0"
     fit-margin-left="0"
     fit-margin-right="0"
     fit-margin-bottom="0" /><g
     id="g10"
     inkscape:groupmode="layer"
     inkscape:label="classes_Pyreverse"
     transform="matrix(1.25,0,0,-1.25,-351.53239,558.01572)"><g
       id="g3726"
       transform="translate(-451.27401,163.91258)"><path
         d="m 733,282 138,0 0,-204 -138,0 0,204 z"
         style="fill:none;stroke:#000000;stroke-width:1;stroke-linecap:butt;stroke-linejoin:round;stroke-miterlimit:10;stroke-opacity:1;stroke-dasharray:none"
         id="path166"
         inkscape:connector-curvature="0" /><text
         y="-266.80078"
         x="767.5"
         transform="scale(1,-1)"
         id="text168"><tspan
           style="font-size:14.00024414px;font-variant:normal;writing-mode:lr-tb;fill:#000000;fill-opacity:1;fill-rule:nonzero;stroke:none;font-family:Nimbus Roman No9 L;-inkscape-font-specification:NimbusRomNo9L-Regu"
           x="767.5 775.00415 781.75226 785.50433 792.25244 801.25458 805.00665 811.75476 818.50287 822.25494 829.00305"
           y="-266.80078"
           sodipodi:role="line"
           id="tspan170">PoloBinding</tspan></text>
<path
         d="m 733,259 138,0"
         style="fill:none;stroke:#000000;stroke-width:1;stroke-linecap:butt;stroke-linejoin:round;stroke-miterlimit:10;stroke-opacity:1;stroke-dasharray:none"
         id="path172"
         inkscape:connector-curvature="0" /><text
         y="-243.80078"
         x="741"
         transform="scale(1,-1)"
         id="text174"><tspan
           style="font-size:14.00024414px;font-variant:normal;writing-mode:lr-tb;fill:#000000;fill-opacity:1;fill-rule:nonzero;stroke:none;font-family:Nimbus Roman No9 L;-inkscape-font-specification:NimbusRomNo9L-Regu"
           x="741 747.74811 752.25623 756.75024 762.75641 767.25049 773.25659 780.0047 786.75281 792.00287 798.00897 802.50305 809.25122 813.00323 819.00934 825.00146 830.25159 834.0036 837.75568 841.50775 848.25586 852.00793 858.01404"
           y="-243.80078"
           sodipodi:role="line"
           id="tspan176">offered_services : dict</tspan><tspan
           style="font-size:14.00024414px;font-variant:normal;writing-mode:lr-tb;fill:#000000;fill-opacity:1;fill-rule:nonzero;stroke:none;font-family:Nimbus Roman No9 L;-inkscape-font-specification:NimbusRomNo9L-Regu"
           x="741 747.74811 752.99823 759.00433 763.49841 770.24652 775.49658 781.50269 785.99677 792.75891 796.49695 802.50305 808.50916 813.75928 817.51135 821.24939 825.00146 831.74957 835.50165 841.50775"
           y="-228.80078"
           sodipodi:role="line"
           id="tspan178">user_services : dict</tspan><tspan
           style="font-size:14.00024414px;font-variant:normal;writing-mode:lr-tb;fill:#000000;fill-opacity:1;fill-rule:nonzero;stroke:none;font-family:Nimbus Roman No9 L;-inkscape-font-specification:NimbusRomNo9L-Regu"
           x="741 747.74811 753.75421 758.24829 762.00037 766.50842"
           y="-213.80078"
           sodipodi:role="line"
           id="tspan180">verify</tspan><tspan
           style="font-size:14.00024414px;font-variant:normal;writing-mode:lr-tb;fill:#000000;fill-opacity:1;fill-rule:nonzero;stroke:none;font-family:Nimbus Roman No9 L;-inkscape-font-specification:NimbusRomNo9L-Regu"
           x="741 752.25623 759.00433 762.75641 766.50842 770.24652 776.25262 782.25873 787.50879 791.24689 798.00897 804.75708 809.25122 815.99933 822.76141 829.50952 834.75964 838.51172 842.24976 846.00183 849.75391 853.50598 858.75604"
           y="-198.80078"
           sodipodi:role="line"
           id="tspan182">multicast_groups : list</tspan></text>
<path
         d="m 733,191 138,0"
         style="fill:none;stroke:#000000;stroke-width:1;stroke-linecap:butt;stroke-linejoin:round;stroke-miterlimit:10;stroke-opacity:1;stroke-dasharray:none"
         id="path184"
         inkscape:connector-curvature="0" /><text
         y="-175.80078"
         x="741"
         transform="scale(1,-1)"
         id="text186"><tspan
           style="font-size:14.00024414px;font-variant:normal;writing-mode:lr-tb;fill:#000000;fill-opacity:1;fill-rule:nonzero;stroke:none;font-family:Nimbus Roman No9 L;-inkscape-font-specification:NimbusRomNo9L-Regu"
           x="741 746.25012 750.00214 755.99426 760.50232 764.25439 771.75854 776.25262 783.00073 786.75281 793.50092 799.50702 806.25513 810.0072 814.50128"
           y="-175.80078"
           sodipodi:role="line"
           id="tspan188">startProtocol()</tspan><tspan
           style="font-size:14.00024414px;font-variant:normal;writing-mode:lr-tb;fill:#000000;fill-opacity:1;fill-rule:nonzero;stroke:none;font-family:Nimbus Roman No9 L;-inkscape-font-specification:NimbusRomNo9L-Regu"
           x="741 747.74811 754.49622 761.24432 764.9964 768.74847 773.9986 780.7467 787.50879 792.75891 798.75098 803.25909 810.0072 813.75928 819.75134 825.75745 830.25159"
           y="-160.80078"
           sodipodi:role="line"
           id="tspan190">publish_service()</tspan><tspan
           style="font-size:14.00024414px;font-variant:normal;writing-mode:lr-tb;fill:#000000;fill-opacity:1;fill-rule:nonzero;stroke:none;font-family:Nimbus Roman No9 L;-inkscape-font-specification:NimbusRomNo9L-Regu"
           x="741 747.74811 753.75421 757.50629 763.49841 770.24652 774.75458 780.7467 792.00287 801.00507 807.01117 813.00323 819.00934 822.76141 829.50952 835.50165 842.26379 846.75781"
           y="-145.80078"
           sodipodi:role="line"
           id="tspan192">datagramReceived()</tspan><tspan
           style="font-size:14.00024414px;font-variant:normal;writing-mode:lr-tb;fill:#000000;fill-opacity:1;fill-rule:nonzero;stroke:none;font-family:Nimbus Roman No9 L;-inkscape-font-specification:NimbusRomNo9L-Regu"
           x="741 744.75208 750.00214 756.75024 762.00037 768.74847 775.49658 781.50269 785.99677 792.75891 798.00897 804.0011 808.50916 813.00323"
           y="-130.80078"
           sodipodi:role="line"
           id="tspan194">is_superuser()</tspan><tspan
           style="font-size:14.00024414px;font-variant:normal;writing-mode:lr-tb;fill:#000000;fill-opacity:1;fill-rule:nonzero;stroke:none;font-family:Nimbus Roman No9 L;-inkscape-font-specification:NimbusRomNo9L-Regu"
           x="741 747.74811 753.75421 757.50629 761.24432 768.00647 773.9986 777.75061 783.75671 790.50488 797.25299 802.50305 808.50916 813.00323 817.51135"
           y="-115.80077"
           sodipodi:role="line"
           id="tspan196">validate_user()</tspan><tspan
           style="font-size:14.00024414px;font-variant:normal;writing-mode:lr-tb;fill:#000000;fill-opacity:1;fill-rule:nonzero;stroke:none;font-family:Nimbus Roman No9 L;-inkscape-font-specification:NimbusRomNo9L-Regu"
           x="741 750.74414 755.25226 759.00433 762.75641 768.74847 775.49658 781.50269 785.99677 790.50488 797.25299 801.74707 806.25513"
           y="-100.80077"
           sodipodi:role="line"
           id="tspan198">write_error()</tspan><tspan
           style="font-size:14.00024414px;font-variant:normal;writing-mode:lr-tb;fill:#000000;fill-opacity:1;fill-rule:nonzero;stroke:none;font-family:Nimbus Roman No9 L;-inkscape-font-specification:NimbusRomNo9L-Regu"
           x="741 747.74811 754.49622 761.24432 768.00647 774.75458 778.50665 782.25873 787.50879 794.25696 801.00507 806.25513 812.26123 816.75531 823.50342 827.25549 833.2616 839.25372 843.76178"
           y="-85.800774"
           sodipodi:role="line"
           id="tspan200">unpublish_service()</tspan></text>
</g></g></svg>