<?xml version="1.0" encoding="UTF-8" standalone="no"?>
<!-- Created with Inkscape (http://www.inkscape.org/) -->

<svg
   xmlns:dc="http://purl.org/dc/elements/1.1/"
   xmlns:cc="http://creativecommons.org/ns#"
   xmlns:rdf="http://www.w3.org/1999/02/22-rdf-syntax-ns#"
   xmlns:svg="http://www.w3.org/2000/svg"
   xmlns="http://www.w3.org/2000/svg"
   xmlns:sodipodi="http://sodipodi.sourceforge.net/DTD/sodipodi-0.dtd"
   xmlns:inkscape="http://www.inkscape.org/namespaces/inkscape"
   id="svg2"
   version="1.1"
   inkscape:version="0.48.4 r9939"
   width="273.75009"
   height="521.87775"
   xml:space="preserve"
   sodipodi:docname="marco.svg"><metadata
     id="metadata8"><rdf:RDF><cc:Work
         rdf:about=""><dc:format>image/svg+xml</dc:format><dc:type
           rdf:resource="http://purl.org/dc/dcmitype/StillImage" /><dc:title /></cc:Work></rdf:RDF></metadata><defs
     id="defs6" /><sodipodi:namedview
     pagecolor="#ffffff"
     bordercolor="#666666"
     borderopacity="1"
     objecttolerance="10"
     gridtolerance="10"
     guidetolerance="10"
     inkscape:pageopacity="0"
     inkscape:pageshadow="2"
     inkscape:window-width="1239"
     inkscape:window-height="776"
     id="namedview4"
     showgrid="false"
     inkscape:zoom="0.4741168"
     inkscape:cx="456.16616"
     inkscape:cy="199.63601"
     inkscape:window-x="41"
     inkscape:window-y="24"
     inkscape:window-maximized="1"
     inkscape:current-layer="g10"
     fit-margin-top="0"
     fit-margin-left="0"
     fit-margin-right="0"
     fit-margin-bottom="0" /><g
     id="g10"
     inkscape:groupmode="layer"
     inkscape:label="classes_Pyreverse"
     transform="matrix(1.25,0,0,-1.25,-40.861008,649.19617)"><g
       id="g3643"
       transform="translate(-6.8111163,1.8569341)"><path
         d="m 40,259.5 218,0 0,-159 -218,0 0,159 z"
         style="fill:none;stroke:#000000;stroke-width:1;stroke-linecap:butt;stroke-linejoin:round;stroke-miterlimit:10;stroke-opacity:1;stroke-dasharray:none"
         id="path16"
         inkscape:connector-curvature="0" /><text
         y="-244.30078"
         x="130.5"
         transform="scale(1,-1)"
         id="text18"><tspan
           style="font-size:14.00024414px;font-variant:normal;writing-mode:lr-tb;fill:#000000;fill-opacity:1;fill-rule:nonzero;stroke:none;font-family:Nimbus Roman No9 L;-inkscape-font-specification:NimbusRomNo9L-Regu"
           x="130.5 143.25423 149.24632 153.75441 159.74651"
           y="-244.30078"
           sodipodi:role="line"
           id="tspan20">Marco</tspan></text>
<path
         d="m 40,236.5 218,0"
         style="fill:none;stroke:#000000;stroke-width:1;stroke-linecap:butt;stroke-linejoin:round;stroke-miterlimit:10;stroke-opacity:1;stroke-dasharray:none"
         id="path22"
         inkscape:connector-curvature="0" /><text
         y="-221.30078"
         x="48"
         transform="scale(1,-1)"
         id="text24"><tspan
           style="font-size:14.00024414px;font-variant:normal;writing-mode:lr-tb;fill:#000000;fill-opacity:1;fill-rule:nonzero;stroke:none;font-family:Nimbus Roman No9 L;-inkscape-font-specification:NimbusRomNo9L-Regu"
           x="48 53.250092 59.998207 66.004318 72.752434 78.758537 82.496597 89.25872 96.006836 101.99894 108.00505 113.25513 117.0072 120.75927 124.51133 128.24939 133.49948 140.2616 146.25372 153.00183 159.00793 162.76001 166.51205 170.26413 177.01225 182.26234 189.01045 195.00256 201.76468 207.75679 211.50885 218.25697 225.00508 228.75716 234.76326 240.76936"
           y="-221.30078"
           sodipodi:role="line"
           id="tspan26">socket_bcast : socket, _socketobject</tspan><tspan
           style="font-size:14.00024414px;font-variant:normal;writing-mode:lr-tb;fill:#000000;fill-opacity:1;fill-rule:nonzero;stroke:none;font-family:Nimbus Roman No9 L;-inkscape-font-specification:NimbusRomNo9L-Regu"
           x="48 54.748116 61.496235 68.244354 74.250458 79.500549 83.252609 87.004684 90.756744 96.006836 101.99894"
           y="-206.30078"
           sodipodi:role="line"
           id="tspan28">nodes : set</tspan><tspan
           style="font-size:14.00024414px;font-variant:normal;writing-mode:lr-tb;fill:#000000;fill-opacity:1;fill-rule:nonzero;stroke:none;font-family:Nimbus Roman No9 L;-inkscape-font-specification:NimbusRomNo9L-Regu"
           x="48 53.250092 59.998207 66.004318 72.752434 78.758537 82.496597 89.25872 100.50092 106.50702 112.49912 117.74921 121.50128 125.25335 129.0054 132.75748 138.00757 144.75568 150.76178 157.50992 163.50201 167.25409 171.00613 174.75821 181.50633 186.75642 193.50453 199.51064 206.25876 212.26486 216.01692 222.76505 229.51317 233.26523 239.25734 245.26344"
           y="-191.30078"
           sodipodi:role="line"
           id="tspan30">socket_mcast : socket, _socketobject</tspan><tspan
           style="font-size:14.00024414px;font-variant:normal;writing-mode:lr-tb;fill:#000000;fill-opacity:1;fill-rule:nonzero;stroke:none;font-family:Nimbus Roman No9 L;-inkscape-font-specification:NimbusRomNo9L-Regu"
           x="48 53.250092 59.998207 66.004318 72.752434 78.758537 82.496597 89.25872 96.006836 101.99894 108.00505 113.25513 117.0072 120.75927 124.51133 128.24939 133.49948 140.2616 146.25372 153.00183 159.00793 162.76001 166.51205 170.26413 177.01225 182.26234 189.01045 195.00256 201.76468 207.75679 211.50885 218.25697 225.00508 228.75716 234.76326 240.76936"
           y="-176.30078"
           sodipodi:role="line"
           id="tspan32">socket_ucast : socket, _socketobject</tspan></text>
<path
         d="m 40,168.5 218,0"
         style="fill:none;stroke:#000000;stroke-width:1;stroke-linecap:butt;stroke-linejoin:round;stroke-miterlimit:10;stroke-opacity:1;stroke-dasharray:none"
         id="path34"
         inkscape:connector-curvature="0" /><text
         y="-153.30078"
         x="48"
         transform="scale(1,-1)"
         id="text36"><tspan
           style="font-size:14.00024414px;font-variant:normal;writing-mode:lr-tb;fill:#000000;fill-opacity:1;fill-rule:nonzero;stroke:none;font-family:Nimbus Roman No9 L;-inkscape-font-specification:NimbusRomNo9L-Regu"
           x="48 59.256195 65.248299 69.756378 75.748482 82.496597 87.004684"
           y="-153.30078"
           sodipodi:role="line"
           id="tspan38">marco()</tspan><tspan
           style="font-size:14.00024414px;font-variant:normal;writing-mode:lr-tb;fill:#000000;fill-opacity:1;fill-rule:nonzero;stroke:none;font-family:Nimbus Roman No9 L;-inkscape-font-specification:NimbusRomNo9L-Regu"
           x="48 52.49408 58.500183 65.248299 71.996414 78.002525 83.252609 87.004684 93.752792 98.246872 105.009 109.50307 114.01115"
           y="-138.30078"
           sodipodi:role="line"
           id="tspan40">request_for()</tspan><tspan
           style="font-size:14.00024414px;font-variant:normal;writing-mode:lr-tb;fill:#000000;fill-opacity:1;fill-rule:nonzero;stroke:none;font-family:Nimbus Roman No9 L;-inkscape-font-specification:NimbusRomNo9L-Regu"
           x="48 53.250092 59.256195 63.750275 70.49839 74.250458 80.256561 86.248665 91.498756 96.006836"
           y="-123.30077"
           sodipodi:role="line"
           id="tspan42">services()</tspan><tspan
           style="font-size:14.00024414px;font-variant:normal;writing-mode:lr-tb;fill:#000000;fill-opacity:1;fill-rule:nonzero;stroke:none;font-family:Nimbus Roman No9 L;-inkscape-font-specification:NimbusRomNo9L-Regu"
           x="48 52.49408 58.500183 65.248299 71.996414 78.002525 83.252609 87.004684 93.752792 100.50092 107.24903 113.25513 117.74921"
           y="-108.30077"
           sodipodi:role="line"
           id="tspan44">request_one()</tspan></text>
<path
         d="m 82.5,517 133,0 0,-144 -133,0 0,144 z"
         style="fill:none;stroke:#000000;stroke-width:1;stroke-linecap:butt;stroke-linejoin:round;stroke-miterlimit:10;stroke-opacity:1;stroke-dasharray:none"
         id="path46"
         inkscape:connector-curvature="0" /><text
         y="-501.80078"
         x="109"
         transform="scale(1,-1)"
         id="text48"><tspan
           style="font-size:14.00024414px;font-variant:normal;writing-mode:lr-tb;fill:#000000;fill-opacity:1;fill-rule:nonzero;stroke:none;font-family:Nimbus Roman No9 L;-inkscape-font-specification:NimbusRomNo9L-Regu"
           x="109 121.75422 127.74632 132.25441 138.24651 145.00864 153.99678 157.74884 164.49696 171.25909 175.01115 181.75928"
           y="-501.80078"
           sodipodi:role="line"
           id="tspan50">MarcoBinding</tspan></text>
<path
         d="m 82.5,494 133,0"
         style="fill:none;stroke:#000000;stroke-width:1;stroke-linecap:butt;stroke-linejoin:round;stroke-miterlimit:10;stroke-opacity:1;stroke-dasharray:none"
         id="path52"
         inkscape:connector-curvature="0" /><text
         y="-478.80078"
         x="90.5"
         transform="scale(1,-1)"
         id="text54"><tspan
           style="font-size:14.00024414px;font-variant:normal;writing-mode:lr-tb;fill:#000000;fill-opacity:1;fill-rule:nonzero;stroke:none;font-family:Nimbus Roman No9 L;-inkscape-font-specification:NimbusRomNo9L-Regu"
           x="90.5 101.7562 107.7483 112.25638 118.24848"
           y="-478.80078"
           sodipodi:role="line"
           id="tspan56">marco</tspan></text>
<path
         d="m 82.5,471 133,0"
         style="fill:none;stroke:#000000;stroke-width:1;stroke-linecap:butt;stroke-linejoin:round;stroke-miterlimit:10;stroke-opacity:1;stroke-dasharray:none"
         id="path58"
         inkscape:connector-curvature="0" /><text
         y="-455.80078"
         x="90.5"
         transform="scale(1,-1)"
         id="text60"><tspan
           style="font-size:14.00024414px;font-variant:normal;writing-mode:lr-tb;fill:#000000;fill-opacity:1;fill-rule:nonzero;stroke:none;font-family:Nimbus Roman No9 L;-inkscape-font-specification:NimbusRomNo9L-Regu"
           x="90.5 94.99408 101.00018 107.7483 114.49641 120.50253 125.75261 129.50468 137.00882 143.75693 148.25101 152.75909 159.5072 167.75336 174.50146 179.00955 185.00165 191.00775 197.75586 202.26395"
           y="-455.80078"
           sodipodi:role="line"
           id="tspan62">requestForInThread()</tspan><tspan
           style="font-size:14.00024414px;font-variant:normal;writing-mode:lr-tb;fill:#000000;fill-opacity:1;fill-rule:nonzero;stroke:none;font-family:Nimbus Roman No9 L;-inkscape-font-specification:NimbusRomNo9L-Regu"
           x="90.5 95.750092 99.502159 105.49426 110.00234 113.75441 121.25854 125.75261 132.50073 136.25279 143.00092 149.00702 155.75513 159.5072 164.00128"
           y="-440.80078"
           sodipodi:role="line"
           id="tspan64">startProtocol()</tspan><tspan
           style="font-size:14.00024414px;font-variant:normal;writing-mode:lr-tb;fill:#000000;fill-opacity:1;fill-rule:nonzero;stroke:none;font-family:Nimbus Roman No9 L;-inkscape-font-specification:NimbusRomNo9L-Regu"
           x="90.5 97.248116 103.25422 107.00629 112.99839 119.74651 124.25459 130.24669 141.50288 150.50505 156.51115 162.50327 168.50937 172.26141 179.00955 185.00165 191.76376 196.25784"
           y="-425.80078"
           sodipodi:role="line"
           id="tspan66">datagramReceived()</tspan><tspan
           style="font-size:14.00024414px;font-variant:normal;writing-mode:lr-tb;fill:#000000;fill-opacity:1;fill-rule:nonzero;stroke:none;font-family:Nimbus Roman No9 L;-inkscape-font-specification:NimbusRomNo9L-Regu"
           x="90.5 101.7562 107.7483 112.25638 118.24848 124.9966 129.50468 136.25279 144.49893 151.26106 155.75513 161.76125 167.75336 174.50146 179.00955"
           y="-410.80078"
           sodipodi:role="line"
           id="tspan68">marcoInThread()</tspan><tspan
           style="font-size:14.00024414px;font-variant:normal;writing-mode:lr-tb;fill:#000000;fill-opacity:1;fill-rule:nonzero;stroke:none;font-family:Nimbus Roman No9 L;-inkscape-font-specification:NimbusRomNo9L-Regu"
           x="90.5 95.750092 101.7562 106.25027 112.99839 116.75046 122.75656 128.74866 133.99875 138.50684 145.25496 153.5011 160.24921 164.75729 170.74939 176.75549 183.50363 188.01169"
           y="-395.80078"
           sodipodi:role="line"
           id="tspan70">servicesInThread()</tspan><tspan
           style="font-size:14.00024414px;font-variant:normal;writing-mode:lr-tb;fill:#000000;fill-opacity:1;fill-rule:nonzero;stroke:none;font-family:Nimbus Roman No9 L;-inkscape-font-specification:NimbusRomNo9L-Regu"
           x="90.5 97.248116 101.7562 107.7483 113.75441 119.74651 124.25459 131.0027 134.75478 141.50288 146.75298 153.5011 160.24921 164.00128 170.74939 177.51151 187.25568 194.00381 198.51187"
           y="-380.80078"
           sodipodi:role="line"
           id="tspan72">graceful_shutdown()</tspan></text>
<path
         d="m 149,259.551 c 0,31.812 0,68.582 0,100.883"
         style="fill:none;stroke:#000000;stroke-width:1;stroke-linecap:butt;stroke-linejoin:round;stroke-miterlimit:10;stroke-opacity:1;stroke-dasharray:none"
         id="path74"
         inkscape:connector-curvature="0" /><path
         d="m 149,360.574 4,6 -4,6 -4,-6 4,-6 z"
         style="fill:#000000;fill-opacity:1;fill-rule:nonzero;stroke:#000000;stroke-width:1;stroke-linecap:butt;stroke-linejoin:round;stroke-miterlimit:10;stroke-opacity:1;stroke-dasharray:none"
         id="path76"
         inkscape:connector-curvature="0" /><text
         y="-342.30078"
         x="149"
         transform="scale(1,-1)"
         id="text78"><tspan
           style="font-size:14.00024414px;font-variant:normal;writing-mode:lr-tb;fill:#00ff00;fill-opacity:1;fill-rule:nonzero;stroke:none;font-family:Nimbus Roman No9 L;-inkscape-font-specification:NimbusRomNo9L-Regu"
           x="149 160.2562 166.24831 170.75638 176.74849"
           y="-342.30078"
           sodipodi:role="line"
           id="tspan80">marco</tspan></text>
</g></g></svg>