<?xml version="1.0" encoding="utf-8" ?>
<!DOCTYPE svg PUBLIC "-//W3C//DTD SVG 1.1//EN" "http://www.w3.org/Graphics/SVG/1.1/DTD/svg11.dtd">
<svg height="492" version="1.1" width="942" xmlns="http://www.w3.org/2000/svg">
<ellipse cx="392" cy="22" fill="#000000" rx="8.0" ry="8.0" stroke="#000000" stroke-width="1"/>
<rect fill="#00ff" height="33" rx="35" ry="35" stroke="#00ff" stroke-width="1" width="388" x="209" y="71"/>
<rect fill="#ffffff" height="35" rx="35" ry="35" stroke="#000000" stroke-width="1" width="390" x="208" y="70"/>
<rect fill="#ffffff" height="33" rx="35" ry="35" stroke="#ffffff" stroke-width="1" width="388" x="209" y="71"/>
<text font-family="Dialog" font-size="12" x="220" y="89">
Configurar timeout, máximo número de nodos y reintentos</text>
<polyline fill="none" points="392,30 392,71" stroke="#000000" stroke-width="1"/>
<line fill="#000000" stroke="#000000" stroke-width="1" x1="385" x2="392" y1="59" y2="71"/>
<line fill="#000000" stroke="#000000" stroke-width="1" x1="399" x2="392" y1="59" y2="71"/>
<rect fill="#00ff" height="33" rx="35" ry="35" stroke="#00ff" stroke-width="1" width="159" x="321" y="135"/>
<rect fill="#ffffff" height="35" rx="35" ry="35" stroke="#000000" stroke-width="1" width="161" x="320" y="134"/>
<rect fill="#ffffff" height="33" rx="35" ry="35" stroke="#ffffff" stroke-width="1" width="159" x="321" y="135"/>
<text font-family="Dialog" font-size="12" x="332" y="153">
Enviar mensaje Marco</text>
<polyline fill="none" points="393,103 393,135" stroke="#333399" stroke-width="1"/>
<line fill="#333399" stroke="#333399" stroke-width="1" x1="386" x2="393" y1="123" y2="135"/>
<line fill="#333399" stroke="#333399" stroke-width="1" x1="400" x2="393" y1="123" y2="135"/>
<rect fill="#00ff" height="33" rx="35" ry="35" stroke="#00ff" stroke-width="1" width="142" x="329" y="207"/>
<rect fill="#ffffff" height="35" rx="35" ry="35" stroke="#000000" stroke-width="1" width="144" x="328" y="206"/>
<rect fill="#ffffff" height="33" rx="35" ry="35" stroke="#ffffff" stroke-width="1" width="142" x="329" y="207"/>
<text font-family="Dialog" font-size="12" x="340" y="225">
Espera bloqueante</text>
<polyline fill="none" points="393,167 393,207" stroke="#000000" stroke-width="1"/>
<line fill="#000000" stroke="#000000" stroke-width="1" x1="386" x2="393" y1="195" y2="207"/>
<line fill="#000000" stroke="#000000" stroke-width="1" x1="400" x2="393" y1="195" y2="207"/>
<polygon fill="#ffffff" points="400,278 416,294 400,310 384,294" stroke="#ffffff" stroke-width="1"/>
<polygon fill="none" points="400,278 416,294 400,310 384,294" stroke="#000000" stroke-width="1"/>
<rect fill="#00ff" height="33" rx="35" ry="35" stroke="#00ff" stroke-width="1" width="116" x="345" y="399"/>
<rect fill="#ffffff" height="35" rx="35" ry="35" stroke="#000000" stroke-width="1" width="118" x="344" y="398"/>
<rect fill="#ffffff" height="33" rx="35" ry="35" stroke="#ffffff" stroke-width="1" width="116" x="345" y="399"/>
<text font-family="Dialog" font-size="12" x="378" y="417">
Retorno</text>
<polyline fill="none" points="400,310 400,342" stroke="#000000" stroke-width="1"/>
<line fill="#000000" stroke="#000000" stroke-width="1" x1="393" x2="400" y1="330" y2="342"/>
<line fill="#000000" stroke="#000000" stroke-width="1" x1="407" x2="400" y1="330" y2="342"/>
<text font-family="Dialog" font-size="12" x="403" y="331">
 [timeout]</text>
<polyline fill="none" points="400,239 400,278" stroke="#333399" stroke-width="1"/>
<line fill="#333399" stroke="#333399" stroke-width="1" x1="393" x2="400" y1="266" y2="278"/>
<line fill="#333399" stroke="#333399" stroke-width="1" x1="407" x2="400" y1="266" y2="278"/>
<rect fill="#00ff" height="33" rx="35" ry="35" stroke="#00ff" stroke-width="1" width="164" x="513" y="279"/>
<rect fill="#ffffff" height="35" rx="35" ry="35" stroke="#000000" stroke-width="1" width="166" x="512" y="278"/>
<rect fill="#ffffff" height="33" rx="35" ry="35" stroke="#ffffff" stroke-width="1" width="164" x="513" y="279"/>
<text font-family="Dialog" font-size="12" x="524" y="297">
Recepción de mensaje</text>
<polyline fill="none" points="416,294 512,294" stroke="#000000" stroke-width="1"/>
<line fill="#000000" stroke="#000000" stroke-width="1" x1="500" x2="512" y1="301" y2="294"/>
<line fill="#000000" stroke="#000000" stroke-width="1" x1="500" x2="512" y1="287" y2="294"/>
<text font-family="Dialog" font-size="12" x="423" y="275">
 [mensaje]</text>
<rect fill="#00ff" height="64" stroke="#00ff" stroke-width="1" width="138" x="712" y="262"/>
<rect fill="#ffffff" height="64" stroke="#ffffff" stroke-width="1" width="138" x="712" y="262"/>
<rect fill="none" height="64" stroke="#000000" stroke-width="1" width="138" x="712" y="262"/>
<line fill="#000000" stroke="#000000" stroke-width="1" x1="764" x2="797" y1="284" y2="284"/>
<text font-family="Dialog" font-size="12" x="764" y="283">
Nodo</text>
<line fill="#333399" stroke="#333399" stroke-width="1" x1="676" x2="681" y1="293" y2="293"/>
<line fill="#333399" stroke="#333399" stroke-width="1" x1="686" x2="691" y1="293" y2="293"/>
<line fill="#333399" stroke="#333399" stroke-width="1" x1="696" x2="701" y1="293" y2="293"/>
<line fill="#333399" stroke="#333399" stroke-width="1" x1="706" x2="711" y1="293" y2="293"/>
<line fill="#333399" stroke="#333399" stroke-width="1" x1="700" x2="712" y1="300" y2="293"/>
<line fill="#333399" stroke="#333399" stroke-width="1" x1="700" x2="712" y1="286" y2="293"/>
<line fill="#333399" stroke="#333399" stroke-width="1" x1="849" x2="854" y1="294" y2="294"/>
<line fill="#333399" stroke="#333399" stroke-width="1" x1="859" x2="864" y1="294" y2="294"/>
<line fill="#333399" stroke="#333399" stroke-width="1" x1="869" x2="874" y1="294" y2="294"/>
<line fill="#333399" stroke="#333399" stroke-width="1" x1="879" x2="884" y1="294" y2="294"/>
<line fill="#333399" stroke="#333399" stroke-width="1" x1="889" x2="894" y1="294" y2="294"/>
<line fill="#333399" stroke="#333399" stroke-width="1" x1="884" x2="896" y1="301" y2="294"/>
<line fill="#333399" stroke="#333399" stroke-width="1" x1="884" x2="896" y1="287" y2="294"/>
<polygon fill="#ffffff" points="912,278 928,294 912,310 896,294" stroke="#ffffff" stroke-width="1"/>
<polygon fill="none" points="912,278 928,294 912,310 896,294" stroke="#000000" stroke-width="1"/>
<polyline fill="none" points="912,278 912,230 470,230" stroke="#333399" stroke-width="1"/>
<line fill="#333399" stroke="#333399" stroke-width="1" x1="482" x2="470" y1="223" y2="230"/>
<line fill="#333399" stroke="#333399" stroke-width="1" x1="482" x2="470" y1="237" y2="230"/>
<text font-family="Dialog" font-size="12" x="573" y="212">
 [número de nodos &lt; max_nodes]</text>
<polyline fill="none" points="912,310 912,414 460,414" stroke="#333399" stroke-width="1"/>
<line fill="#333399" stroke="#333399" stroke-width="1" x1="472" x2="460" y1="407" y2="414"/>
<line fill="#333399" stroke="#333399" stroke-width="1" x1="472" x2="460" y1="421" y2="414"/>
<text font-family="Dialog" font-size="12" x="606" y="439">
 [número de nodos == max_nodes]</text>
<polygon fill="#ffffff" points="400,342 416,358 400,374 384,358" stroke="#ffffff" stroke-width="1"/>
<polygon fill="none" points="400,342 416,358 400,374 384,358" stroke="#000000" stroke-width="1"/>
<polyline fill="none" points="400,374 400,399" stroke="#333399" stroke-width="1"/>
<line fill="#333399" stroke="#333399" stroke-width="1" x1="393" x2="400" y1="387" y2="399"/>
<line fill="#333399" stroke="#333399" stroke-width="1" x1="407" x2="400" y1="387" y2="399"/>
<text font-family="Dialog" font-size="12" x="403" y="386">
 [intentos realizados == intentos]</text>
<polyline fill="none" points="384,358 272,358 272,150 321,150" stroke="#333399" stroke-width="1"/>
<line fill="#333399" stroke="#333399" stroke-width="1" x1="309" x2="321" y1="157" y2="150"/>
<line fill="#333399" stroke="#333399" stroke-width="1" x1="309" x2="321" y1="143" y2="150"/>
<text font-family="Dialog" font-size="12" x="15" y="372">
 [intentos realizados &lt; intentos &amp;&amp; número de nodos == 0]</text>
<ellipse cx="404" cy="466" fill="#000000" rx="12.0" ry="12.0" stroke="#000000" stroke-width="1"/>
<ellipse cx="404" cy="466" fill="#ffffff" rx="11.0" ry="11.0" stroke="#ffffff" stroke-width="1"/>
<ellipse cx="403" cy="465" fill="#000000" rx="7.5" ry="7.5" stroke="#000000" stroke-width="1"/>
<polyline fill="none" points="403,431 403,454" stroke="#333399" stroke-width="1"/>
<line fill="#333399" stroke="#333399" stroke-width="1" x1="396" x2="403" y1="442" y2="454"/>
<line fill="#333399" stroke="#333399" stroke-width="1" x1="410" x2="403" y1="442" y2="454"/>
</svg>
