<?xml version="1.0" encoding="utf-8" ?>
<!DOCTYPE svg PUBLIC "-//W3C//DTD SVG 1.1//EN" "http://www.w3.org/Graphics/SVG/1.1/DTD/svg11.dtd">
<svg height="492" version="1.1" width="644" xmlns="http://www.w3.org/2000/svg">
<polygon fill="#ffffff" points="14,14 580,14 580,37 629,37 629,477 14,477 14,14" stroke="#ffffff" stroke-width="1"/>
<rect fill="none" height="23" stroke="#000000" stroke-width="1" width="566" x="14" y="14"/>
<text font-family="Dialog" font-size="12" x="19" y="27">
marcopolo</text>
<rect fill="none" height="440" stroke="#000000" stroke-width="1" width="615" x="14" y="37"/>
<polygon fill="#ffffff" points="30,70 492,70 492,93 541,93 541,221 30,221 30,70" stroke="#ffffff" stroke-width="1"/>
<rect fill="none" height="23" stroke="#000000" stroke-width="1" width="462" x="30" y="70"/>
<text font-family="Dialog" font-size="12" x="35" y="83">
marco</text>
<rect fill="none" height="128" stroke="#000000" stroke-width="1" width="511" x="30" y="93"/>
<polygon fill="#ffffff" points="302,230 556,230 556,253 605,253 605,445 302,445 302,230" stroke="#ffffff" stroke-width="1"/>
<rect fill="none" height="23" stroke="#000000" stroke-width="1" width="254" x="302" y="230"/>
<text font-family="Dialog" font-size="12" x="307" y="243">
polo</text>
<rect fill="none" height="192" stroke="#000000" stroke-width="1" width="303" x="302" y="253"/>
<polygon fill="#ffffff" points="318,270 369,270 369,293 418,293 418,341 318,341 318,270" stroke="#ffffff" stroke-width="1"/>
<rect fill="none" height="23" stroke="#000000" stroke-width="1" width="51" x="318" y="270"/>
<text font-family="Dialog" font-size="12" x="323" y="283">
polod</text>
<rect fill="none" height="48" stroke="#000000" stroke-width="1" width="100" x="318" y="293"/>
<polygon fill="#ffffff" points="446,270 527,270 527,293 576,293 576,341 446,341 446,270" stroke="#ffffff" stroke-width="1"/>
<rect fill="none" height="23" stroke="#000000" stroke-width="1" width="81" x="446" y="270"/>
<text font-family="Dialog" font-size="12" x="451" y="283">
polobinding</text>
<rect fill="none" height="48" stroke="#000000" stroke-width="1" width="130" x="446" y="293"/>
<polygon fill="#ffffff" points="318,358 396,358 396,381 445,381 445,429 318,429 318,358" stroke="#ffffff" stroke-width="1"/>
<rect fill="none" height="23" stroke="#000000" stroke-width="1" width="78" x="318" y="358"/>
<text font-family="Dialog" font-size="12" x="323" y="371">
polo</text>
<rect fill="none" height="48" stroke="#000000" stroke-width="1" width="127" x="318" y="381"/>
<polygon fill="#ffffff" points="30,246 236,246 236,269 285,269 285,365 30,365 30,246" stroke="#ffffff" stroke-width="1"/>
<rect fill="none" height="23" stroke="#000000" stroke-width="1" width="206" x="30" y="246"/>
<text font-family="Dialog" font-size="12" x="35" y="259">
marco_conf</text>
<rect fill="none" height="96" stroke="#000000" stroke-width="1" width="255" x="30" y="269"/>
<polygon fill="#ffffff" points="46,286 100,286 100,309 149,309 149,339 46,339 46,286" stroke="#ffffff" stroke-width="1"/>
<rect fill="none" height="23" stroke="#000000" stroke-width="1" width="54" x="46" y="286"/>
<text font-family="Dialog" font-size="12" x="51" y="299">
utils</text>
<rect fill="none" height="30" stroke="#000000" stroke-width="1" width="103" x="46" y="309"/>
<polygon fill="#ffffff" points="166,286 217,286 217,309 266,309 266,339 166,339 166,286" stroke="#ffffff" stroke-width="1"/>
<rect fill="none" height="23" stroke="#000000" stroke-width="1" width="51" x="166" y="286"/>
<text font-family="Dialog" font-size="12" x="171" y="299">
conf</text>
<rect fill="none" height="30" stroke="#000000" stroke-width="1" width="100" x="166" y="309"/>
<polygon fill="#ffffff" points="46,102 142,102 142,125 191,125 191,201 46,201 46,102" stroke="#ffffff" stroke-width="1"/>
<rect fill="none" height="23" stroke="#000000" stroke-width="1" width="96" x="46" y="102"/>
<text font-family="Dialog" font-size="12" x="51" y="115">
marcobinding</text>
<rect fill="none" height="76" stroke="#000000" stroke-width="1" width="145" x="46" y="125"/>
<polygon fill="#ffffff" points="222,102 316,102 316,125 365,125 365,201 222,201 222,102" stroke="#ffffff" stroke-width="1"/>
<rect fill="none" height="23" stroke="#000000" stroke-width="1" width="94" x="222" y="102"/>
<text font-family="Dialog" font-size="12" x="227" y="115">
marcod</text>
<rect fill="none" height="76" stroke="#000000" stroke-width="1" width="143" x="222" y="125"/>
<polygon fill="#ffffff" points="382,102 476,102 476,125 525,125 525,201 382,201 382,102" stroke="#ffffff" stroke-width="1"/>
<rect fill="none" height="23" stroke="#000000" stroke-width="1" width="94" x="382" y="102"/>
<text font-family="Dialog" font-size="12" x="387" y="115">
marco</text>
<rect fill="none" height="76" stroke="#000000" stroke-width="1" width="143" x="382" y="125"/>
</svg>
